<?xml version="1.0" standalone="no"?>
<!DOCTYPE svg PUBLIC "-//W3C//DTD SVG 20010904//EN"
 "http://www.w3.org/TR/2001/REC-SVG-20010904/DTD/svg10.dtd">
<svg version="1.0" xmlns="http://www.w3.org/2000/svg"
 width="512.000000pt" height="512.000000pt" viewBox="0 0 512.000000 512.000000"
 preserveAspectRatio="xMidYMid meet">
<metadata>
Created by potrace 1.16, written by Peter Selinger 2001-2019
</metadata>
<g transform="translate(0.000000,512.000000) scale(0.100000,-0.100000)"
fill="#000000" stroke="none">
<path d="M12 4678 c-23 -23 -11 -79 67 -306 l79 -230 -35 -7 c-52 -9 -93 -54
-93 -100 0 -46 26 -91 59 -104 98 -39 716 -187 1041 -250 830 -160 1438 -196
2120 -125 217 22 587 80 835 130 425 87 927 219 981 260 77 57 35 188 -61 189
-16 1 -29 5 -29 10 1 6 34 110 73 232 79 246 85 287 46 305 -22 10 -53 4 -208
-40 -661 -189 -1292 -314 -1887 -374 -159 -16 -657 -16 -815 0 -564 57 -1262
191 -1907 366 -216 59 -246 64 -266 44z"/>
<path d="M915 3485 c-14 -13 -25 -28 -25 -32 0 -4 -29 -238 -64 -518 -39 -314
-68 -519 -77 -533 -21 -33 -61 -42 -184 -42 -167 0 -168 -2 -163 -277 3 -166
4 -172 27 -197 23 -24 31 -26 110 -26 110 0 135 -12 139 -65 2 -22 -31 -316
-73 -653 -41 -337 -75 -626 -75 -642 0 -17 9 -38 22 -50 21 -19 33 -20 377
-20 374 1 375 1 399 47 7 13 26 268 48 665 21 381 41 653 48 668 23 51 -15 50
1136 50 1151 0 1113 1 1136 -50 7 -15 27 -292 48 -668 22 -401 40 -651 48
-665 24 -46 24 -46 399 -47 344 0 356 1 377 20 13 12 22 33 22 50 0 16 -34
305 -75 642 -42 337 -74 631 -73 653 4 53 29 65 139 65 79 0 87 2 110 26 23
25 24 32 27 196 6 275 4 278 -163 278 -124 0 -163 9 -184 43 -9 13 -38 217
-77 537 -62 506 -64 515 -89 538 -14 12 -34 22 -43 22 -9 0 -121 -18 -249 -39
-240 -39 -278 -52 -289 -95 -3 -13 6 -231 21 -485 28 -492 28 -493 -21 -511
-36 -14 -723 -13 -762 1 -20 7 -34 21 -41 41 -7 20 -11 178 -11 453 0 410 -1
422 -20 443 -12 12 -26 22 -33 23 -7 0 -95 2 -197 4 -192 3 -229 -3 -244 -40
-3 -9 -6 -205 -6 -434 0 -272 -4 -429 -11 -449 -7 -20 -21 -34 -41 -41 -39
-14 -726 -15 -762 -1 -49 18 -49 19 -20 516 14 255 23 476 20 489 -4 14 -17
32 -30 40 -21 14 -455 94 -509 95 -10 0 -29 -11 -42 -25z"/>
</g>
</svg>
